<!DOCTYPE svg PUBLIC "-//W3C//DTD SVG 1.1//EN" "http://www.w3.org/Graphics/SVG/1.1/DTD/svg11.dtd">
<!-- Uploaded to: SVG Repo, www.svgrepo.com, Transformed by: SVG Repo Mixer Tools -->
<svg fill="#ffffff" height="64px" width="64px" version="1.1" id="Layer_1" xmlns="http://www.w3.org/2000/svg" xmlns:xlink="http://www.w3.org/1999/xlink" viewBox="0 0 512 512" xml:space="preserve">
<g id="SVGRepo_bgCarrier" stroke-width="0"/>
<g id="SVGRepo_tracerCarrier" stroke-linecap="round" stroke-linejoin="round"/>
<g id="SVGRepo_iconCarrier"> <g> <g> <path d="M491.29,477.068L457.585,245.81c-0.758-5.204-5.585-8.803-10.794-8.047c-5.203,0.758-8.805,5.59-8.047,10.793 l33.705,231.258c0.49,3.352-0.462,6.611-2.677,9.173c-2.216,2.563-5.303,3.974-8.692,3.974H117.773c-5.257,0-9.52,4.262-9.52,9.52 c0,5.257,4.262,9.52,9.52,9.52H461.08c8.872,0,17.289-3.849,23.092-10.559C489.975,494.729,492.57,485.846,491.29,477.068z"/> </g> </g> <g> <g> <path d="M451.41,203.439l-8.549-58.662c-2.172-14.894-15.158-26.126-30.21-26.126h-28.836C378.929,52.405,323.471,0,256,0 S133.071,52.405,128.185,118.65H99.349c-15.051,0-28.039,11.232-30.209,26.126L20.71,477.068 c-1.279,8.78,1.315,17.663,7.118,24.373C33.631,508.151,42.048,512,50.919,512h28.775c5.257,0,9.52-4.262,9.52-9.52 c0-5.257-4.262-9.52-9.52-9.52H50.919c-3.388,0-6.475-1.411-8.691-3.974c-2.216-2.563-3.168-5.82-2.68-9.173l48.43-332.291 c0.817-5.605,5.706-9.833,11.37-9.833h313.302c5.665,0,10.552,4.228,11.369,9.833l8.549,58.662 c0.759,5.204,5.59,8.811,10.794,8.047C448.566,213.474,452.168,208.641,451.41,203.439z M147.31,118.65 c4.842-55.731,51.725-99.61,108.69-99.61s103.846,43.879,108.688,99.61H147.31z"/> </g> </g> <g> <g> <path d="M243.381,367.181l-6.148-21.518c-4.078-14.276-14.802-25.934-28.689-31.188l-3.126-1.183 c13.491-9.383,23.247-23.662,26.806-40.116l2.23-10.313c1.111-5.138-2.154-10.205-7.293-11.317 c-5.136-1.111-10.205,2.153-11.317,7.293l-2.23,10.313c-2.88,13.319-11.481,24.62-23.205,31.067v-39.368 c0-5.257-4.262-9.52-9.52-9.52c-5.257,0-9.52,4.262-9.52,9.52v108.946c0,5.257,4.262,9.52,9.52,9.52c5.257,0,9.52-4.262,9.52-9.52 V327.97l11.397,4.312c8.286,3.135,14.686,10.092,17.12,18.612l6.148,21.52c1.194,4.181,5.006,6.906,9.149,6.906 c0.866,0,1.747-0.119,2.62-0.369C241.897,377.506,244.825,372.237,243.381,367.181z"/> </g> </g> <g> <g> <path d="M331.11,313.748h-28.371c-5.259,0-9.52,4.262-9.52,9.52c0,5.257,4.261,9.52,9.52,9.52h18.852v4.666 c0,12.585-10.238,22.823-22.823,22.823c-12.584,0-22.822-10.238-22.822-22.823v-44.259c0-12.584,10.238-22.823,22.823-22.823 c12.584,0,22.822,10.238,22.822,22.823c0,5.257,4.261,9.52,9.52,9.52c5.259,0,9.52-4.262,9.52-9.52 c0-23.083-18.78-41.863-41.863-41.863s-41.861,18.779-41.861,41.863v44.259c0,23.083,18.779,41.863,41.863,41.863 s41.861-18.779,41.861-41.863v-14.186C340.63,318.01,336.369,313.748,331.11,313.748z"/> </g> </g> </g>
</svg>